<svg version="1.2" xmlns="http://www.w3.org/2000/svg" viewBox="0 0 250 343" width="250" height="343"><defs><filter x="-50%" y="-50%" width="200%" height="200%" id="f1"> <feGaussianBlur stdDeviation="40"/> </filter><linearGradient id="P" gradientUnits="userSpaceOnUse"/><linearGradient id="g1" x2="1" href="#P" gradientTransform="matrix(69.456,-58.559,58.558,69.455,95.785,236.246)"><stop stop-color="#217bfe"/><stop offset=".27" stop-color="#078efb"/><stop offset=".78" stop-color="#a190ff"/><stop offset="1" stop-color="#bd99fe"/></linearGradient><linearGradient id="g2" x2="1" href="#P" gradientTransform="matrix(40.504,-34.149,34.149,40.504,107.405,227.107)"><stop stop-color="#217bfe"/><stop offset=".27" stop-color="#078efb"/><stop offset=".78" stop-color="#a190ff"/><stop offset="1" stop-color="#bd99fe"/></linearGradient></defs><style>.a{filter:url(#f1)}.b{filter:url(#f1);fill:url(#g1)}.c{opacity:.5;fill:#161718}.d{opacity:.15;fill:#dadce0}.e{opacity:.15;fill:none;stroke:#dadce0}.f{fill:url(#g2)}</style><path class="a" d="m201.2 213.5c-10.5 0-20.2-2-29.5-6-9.2-4-17.4-9.5-24.3-16.4-6.8-6.8-12.3-15-16.4-24.3-3.9-9.2-5.9-19-5.9-29.5 0-0.2-0.2-0.3-0.3-0.3-0.2 0-0.3 0.1-0.3 0.3 0 10.5-2.1 20.3-6.1 29.5-4 9.3-9.4 17.5-16.3 24.3-6.8 6.9-15 12.4-24.3 16.4-9.2 4-19 6-29.5 6-0.2 0-0.3 0.1-0.3 0.3 0 0.1 0.1 0.3 0.3 0.3 10.5 0 20.3 2 29.5 6.1 9.3 3.9 17.5 9.4 24.3 16.2 6.9 6.9 12.3 15.1 16.3 24.3 4 9.3 6.1 19 6.1 29.5 0 0.2 0.1 0.3 0.3 0.3 0.1 0 0.3-0.1 0.3-0.3 0-10.5 2-20.2 5.9-29.5 4.1-9.2 9.6-17.4 16.4-24.3 6.9-6.8 15.1-12.3 24.3-16.2 9.3-4.1 19-6.1 29.5-6.1 0.2 0 0.3-0.2 0.3-0.3 0-0.2-0.1-0.3-0.3-0.3z"/><path class="b" d="m201.2 213.5c-10.5 0-20.2-2-29.5-6-9.2-4-17.4-9.5-24.3-16.4-6.8-6.8-12.3-15-16.4-24.3-3.9-9.2-5.9-19-5.9-29.5 0-0.2-0.2-0.3-0.3-0.3-0.2 0-0.3 0.1-0.3 0.3 0 10.5-2.1 20.3-6.1 29.5-4 9.3-9.4 17.5-16.3 24.3-6.8 6.9-15 12.4-24.3 16.4-9.2 4-19 6-29.5 6-0.2 0-0.3 0.1-0.3 0.3 0 0.1 0.1 0.3 0.3 0.3 10.5 0 20.3 2 29.5 6.1 9.3 3.9 17.5 9.4 24.3 16.2 6.9 6.9 12.3 15.1 16.3 24.3 4 9.3 6.1 19 6.1 29.5 0 0.2 0.1 0.3 0.3 0.3 0.1 0 0.3-0.1 0.3-0.3 0-10.5 2-20.2 5.9-29.5 4.1-9.2 9.6-17.4 16.4-24.3 6.9-6.8 15.1-12.3 24.3-16.2 9.3-4.1 19-6.1 29.5-6.1 0.2 0 0.3-0.2 0.3-0.3 0-0.2-0.1-0.3-0.3-0.3z"/><path fill-rule="evenodd" class="c" d="m124.3 92c42.4 0 76.8 34.4 76.8 76.8 0 42.4-34.4 76.7-76.8 76.7-42.4 0-76.8-34.3-76.8-76.7 0-42.4 34.4-76.8 76.8-76.8z"/><path fill-rule="evenodd" class="d" d="m124.3 92c42.4 0 76.8 34.4 76.8 76.8 0 42.4-34.4 76.7-76.8 76.7-42.4 0-76.8-34.3-76.8-76.7 0-42.4 34.4-76.8 76.8-76.8z"/><path fill-rule="evenodd" class="e" d="m124.3 92.5c42.1 0 76.3 34.1 76.3 76.3 0 42.1-34.2 76.2-76.3 76.2-42.1 0-76.3-34.1-76.3-76.2 0-42.2 34.2-76.3 76.3-76.3z"/><path  d="m168.9 168.6c-6.1 0-11.8-1.2-17.2-3.5-5.4-2.3-10.2-5.6-14.2-9.6-4-3.9-7.2-8.7-9.6-14.1-2.3-5.4-3.4-11.1-3.4-17.2 0-0.1-0.1-0.2-0.2-0.2-0.1 0-0.2 0.1-0.2 0.2 0 6.1-1.2 11.8-3.5 17.2-2.3 5.4-5.5 10.2-9.5 14.1-4 4-8.8 7.3-14.2 9.6-5.4 2.3-11 3.5-17.2 3.5-0.1 0-0.2 0.1-0.2 0.2 0 0.1 0.1 0.1 0.2 0.1 6.2 0 11.8 1.2 17.2 3.6 5.4 2.3 10.2 5.5 14.2 9.5 4 4 7.2 8.8 9.5 14.2 2.3 5.4 3.5 11 3.5 17.2 0 0.1 0.1 0.1 0.2 0.1 0.1 0 0.2 0 0.2-0.1 0-6.2 1.1-11.9 3.4-17.2 2.4-5.4 5.6-10.2 9.6-14.2 4-4 8.8-7.2 14.2-9.5 5.4-2.4 11.1-3.6 17.2-3.6 0.1 0 0.2 0 0.2-0.1 0-0.1-0.1-0.2-0.2-0.2z"/><path class="f" d="m168.9 168.6c-6.1 0-11.8-1.2-17.2-3.5-5.4-2.3-10.2-5.6-14.2-9.6-4-3.9-7.2-8.7-9.6-14.1-2.3-5.4-3.4-11.1-3.4-17.2 0-0.1-0.1-0.2-0.2-0.2-0.1 0-0.2 0.1-0.2 0.2 0 6.1-1.2 11.8-3.5 17.2-2.3 5.4-5.5 10.2-9.5 14.1-4 4-8.8 7.3-14.2 9.6-5.4 2.3-11 3.5-17.2 3.5-0.1 0-0.2 0.1-0.2 0.2 0 0.1 0.1 0.1 0.2 0.1 6.2 0 11.8 1.2 17.2 3.6 5.4 2.3 10.2 5.5 14.2 9.5 4 4 7.2 8.8 9.5 14.2 2.3 5.4 3.5 11 3.5 17.2 0 0.1 0.1 0.1 0.2 0.1 0.1 0 0.2 0 0.2-0.1 0-6.2 1.1-11.9 3.4-17.2 2.4-5.4 5.6-10.2 9.6-14.2 4-4 8.8-7.2 14.2-9.5 5.4-2.4 11.1-3.6 17.2-3.6 0.1 0 0.2 0 0.2-0.1 0-0.1-0.1-0.2-0.2-0.2z"/></svg>